HIERARCHY
ROOT joint_Root
{
	OFFSET 0.0 0.0 0.0
	CHANNELS 6 Xposition Yposition Zposition Zrotation Xrotation Yrotation 
	JOINT Hips
	{
		OFFSET 4.5925 91.4895 -427.239
		CHANNELS 6 Xposition Yposition Zposition Zrotation Xrotation Yrotation 
		JOINT Spine
		{
			OFFSET 15.7357 0.0 0.0
			CHANNELS 6 Xposition Yposition Zposition Zrotation Xrotation Yrotation 
			JOINT Chest
			{
				OFFSET 8.98455 -0.406207 0.0
				CHANNELS 6 Xposition Yposition Zposition Zrotation Xrotation Yrotation 
				JOINT Neck
				{
					OFFSET 16.3773 0.0 0.0
					CHANNELS 6 Xposition Yposition Zposition Zrotation Xrotation Yrotation 
					JOINT Head
					{
						OFFSET 6.45672 0.0 0.0
						CHANNELS 6 Xposition Yposition Zposition Zrotation Xrotation Yrotation 
						End Site
						{
							OFFSET 0.0 0.0 0.0
						}
					}
				}
				JOINT Shoulder_L
				{
					OFFSET 12.9942 -0.242716 4.98039
					CHANNELS 6 Xposition Yposition Zposition Zrotation Xrotation Yrotation 
					JOINT UpperArm_L
					{
						OFFSET 5.34809 0.0 0.0
						CHANNELS 6 Xposition Yposition Zposition Zrotation Xrotation Yrotation 
						JOINT LowerArm_L
						{
							OFFSET 24.3286 1.87007e-05 0.0
							CHANNELS 6 Xposition Yposition Zposition Zrotation Xrotation Yrotation 
							JOINT Hand_L
							{
								OFFSET 22.2916 0.0 0.0
								CHANNELS 6 Xposition Yposition Zposition Zrotation Xrotation Yrotation 
								End Site
								{
									OFFSET 0.0 0.0 0.0
								}
							}
						}
					}
				}
				JOINT Shoulder_R
				{
					OFFSET 12.9945 -0.242716 -4.98039
					CHANNELS 6 Xposition Yposition Zposition Zrotation Xrotation Yrotation 
					JOINT UpperArm_R
					{
						OFFSET -5.34813 0.0 0.0
						CHANNELS 6 Xposition Yposition Zposition Zrotation Xrotation Yrotation 
						JOINT LowerArm_R
						{
							OFFSET -24.3289 0.000322201 0.0
							CHANNELS 6 Xposition Yposition Zposition Zrotation Xrotation Yrotation 
							JOINT Hand_R
							{
								OFFSET -22.2915 -0.000108084 0.0
								CHANNELS 6 Xposition Yposition Zposition Zrotation Xrotation Yrotation 
								End Site
								{
									OFFSET 0.0 0.0 0.0
								}
							}
						}
					}
				}
			}
		}
		JOINT UpperLeg_L
		{
			OFFSET -2.19248 -6.46944 0.0
			CHANNELS 6 Xposition Yposition Zposition Zrotation Xrotation Yrotation 
			JOINT LowerLeg_L
			{
				OFFSET 39.0811 0.0 -1.23785e-05
				CHANNELS 6 Xposition Yposition Zposition Zrotation Xrotation Yrotation 
				JOINT Foot_L
				{
					OFFSET 40.9854 0.0 -1.26872e-05
					CHANNELS 6 Xposition Yposition Zposition Zrotation Xrotation Yrotation 
					JOINT Toes_L
					{
						OFFSET 11.7543 0.0 0.0
						CHANNELS 6 Xposition Yposition Zposition Zrotation Xrotation Yrotation 
						End Site
						{
							OFFSET 0.0 0.0 0.0
						}
					}
				}
			}
		}
		JOINT UpperLeg_R
		{
			OFFSET -2.19251 6.46944 0.0
			CHANNELS 6 Xposition Yposition Zposition Zrotation Xrotation Yrotation 
			JOINT LowerLeg_R
			{
				OFFSET -39.0811 -0.00228153 -0.0401928
				CHANNELS 6 Xposition Yposition Zposition Zrotation Xrotation Yrotation 
				JOINT Foot_R
				{
					OFFSET -40.9854 0.0 0.0
					CHANNELS 6 Xposition Yposition Zposition Zrotation Xrotation Yrotation 
					JOINT Toes_R
					{
						OFFSET -11.7543 0.0 0.0
						CHANNELS 6 Xposition Yposition Zposition Zrotation Xrotation Yrotation 
						End Site
						{
							OFFSET 0.0 0.0 0.0
						}
					}
				}
			}
		}
	}
}
MOTION
Frames:	6
Frame Time:	0.0333333
0.000000 0.000000 0.000000 0.000000 0.000000 -0.000000 11.351800 93.399200 61.499300 -92.593600 -14.992100 168.263000 15.735700 0.000005 -0.000001 35.139500 80.135100 -33.203500 8.984550 -0.406207 -0.000000 4.001630 -16.176200 4.456340 16.377300 -0.000001 -0.000001 -1.299000 -4.701540 1.680950 6.456720 -0.000001 -0.000000 -8.750310 2.557470 2.251980 12.994200 -0.242716 4.980390 -88.878600 -4.086510 -74.640200 5.348090 -0.000007 -0.000001 -58.042600 21.462100 -31.513900 24.328600 0.000019 0.000005 6.275590 -0.413779 -93.755200 22.291600 -0.000001 0.000005 4.842560 5.480690 -5.774790 12.994500 -0.242716 -4.980390 90.043100 -0.130028 -71.648300 -5.348130 -0.000001 -0.000004 -71.759700 20.373000 39.271600 -24.328900 0.000322 -0.000009 -5.944210 -6.762150 -41.479400 -22.291500 -0.000108 -0.000004 -2.960360 5.474070 -5.521070 -2.192480 -6.469440 -0.000000 -169.674000 -6.591170 12.340500 39.081100 -0.000007 -0.000012 0.185489 -0.207990 41.726900 40.985400 -0.000006 -0.000013 -0.581307 -2.479830 -33.389700 11.754300 -0.000000 0.000003 -0.004135 -0.052843 -18.726400 -2.192510 6.469440 -0.000001 -178.668000 12.105500 135.652000 -39.081100 -0.002282 -0.040193 -0.067407 0.127753 28.964600 -40.985400 0.000008 0.000006 -2.125190 9.920790 -69.263400 -11.754300 -0.000006 -0.000006 -0.017688 -0.154126 -22.866100
0.000000 0.000000 0.000000 0.000000 0.000000 -0.000000 10.674100 92.069200 48.559000 -94.754700 -14.122700 170.626000 15.735700 0.000005 -0.000001 40.775500 79.999300 -39.537500 8.984550 -0.406207 -0.000000 5.617240 -15.135100 3.231110 16.377300 -0.000001 -0.000001 -0.965460 -5.219150 1.268140 6.456720 -0.000001 -0.000000 -9.391810 1.496710 1.973240 12.994200 -0.242716 4.980390 -89.107400 -3.333920 -75.002300 5.348090 -0.000007 -0.000001 -59.488500 25.717100 -25.158700 24.328600 0.000019 0.000005 5.561420 0.536992 -84.505800 22.291600 -0.000001 0.000005 6.172380 5.483280 -5.874640 12.994500 -0.242716 -4.980390 89.262200 2.278740 -72.053300 -5.348130 -0.000001 -0.000004 -71.333400 18.278100 34.437800 -24.328900 0.000322 -0.000009 -6.647000 -7.158990 -43.074000 -22.291500 -0.000108 -0.000004 -0.595248 5.502200 -6.619740 -2.192480 -6.469440 -0.000000 -174.332000 -1.279760 13.760300 39.081100 -0.000007 -0.000012 0.240373 -0.163619 55.756800 40.985400 -0.000006 -0.000013 3.953890 -5.849970 -33.870900 11.754300 -0.000000 0.000003 -0.003820 -0.049567 -18.593000 -2.192510 6.469440 -0.000001 -178.423000 16.840200 140.698000 -39.081100 -0.002282 -0.040193 -0.128665 0.332210 21.667500 -40.985400 0.000008 0.000006 -5.478070 14.770000 -73.569200 -11.754300 -0.000006 -0.000006 -0.019291 -0.163333 -23.244900
0.000000 0.000000 0.000000 0.000000 0.000000 -0.000000 10.212700 89.628300 35.980300 -94.984900 -11.639200 172.569000 15.735700 0.000005 -0.000001 49.109300 80.446500 -47.959200 8.984550 -0.406207 -0.000000 6.930870 -12.475300 3.063190 16.377300 -0.000001 -0.000001 -0.419294 -4.907840 0.597644 6.456720 -0.000001 -0.000000 -9.680210 0.602685 1.513150 12.994200 -0.242716 4.980390 -89.466200 -1.951070 -74.694600 5.348090 -0.000007 -0.000001 -59.797800 30.098700 -20.084000 24.328600 0.000019 0.000005 8.898230 3.220330 -70.273600 22.291600 -0.000001 0.000005 3.776950 5.497970 -6.453650 12.994500 -0.242716 -4.980390 88.478000 5.013550 -73.087000 -5.348130 -0.000001 -0.000004 -69.490400 17.255200 26.645000 -24.328900 0.000322 -0.000009 -7.557690 -7.304700 -46.215000 -22.291500 -0.000108 -0.000004 1.434010 5.526360 -7.633600 -2.192480 -6.469440 -0.000000 -175.794000 -1.201430 9.715420 39.081100 -0.000007 -0.000012 0.335110 -0.084437 75.856800 40.985400 -0.000006 -0.000013 1.967790 -7.539090 -30.317100 11.754300 -0.000000 0.000003 -0.003400 -0.045053 -18.409200 -2.192510 6.469440 -0.000001 -175.266000 19.618000 141.896000 -39.081100 -0.002282 -0.040193 -0.012778 0.030022 28.179100 -40.985400 0.000008 0.000006 -1.455550 7.926840 -77.282500 -11.754300 -0.000006 -0.000006 -0.019711 -0.165682 -23.341700
0.000000 0.000000 0.000000 0.000000 0.000000 -0.000000 10.311800 86.527900 25.116500 -91.910000 -7.717320 171.689000 15.735700 0.000005 -0.000001 58.790200 81.613400 -56.619500 8.984550 -0.406207 -0.000000 6.808440 -8.681960 4.860520 16.377300 -0.000001 -0.000001 -0.241314 -3.740230 -0.086064 6.456720 -0.000001 -0.000000 -10.095500 0.156487 1.230540 12.994200 -0.242716 4.980390 -90.173200 0.616064 -74.297300 5.348090 -0.000007 -0.000001 -57.714700 34.684100 -15.619800 24.328600 0.000019 0.000005 10.790000 8.241110 -53.062100 22.291600 -0.000001 0.000005 0.580681 5.500890 -6.569770 12.994500 -0.242716 -4.980390 87.671000 8.743950 -75.020800 -5.348130 -0.000001 -0.000004 -63.821300 16.435300 14.785600 -24.328900 0.000322 -0.000009 -8.661110 -6.926360 -51.627600 -22.291500 -0.000108 -0.000004 3.091800 5.529790 -7.786290 -2.192480 -6.469440 -0.000000 -173.486000 -4.708300 -3.317950 39.081100 -0.000007 -0.000012 0.496455 0.083171 99.509000 40.985400 -0.000006 -0.000013 2.811460 -7.152600 -22.646200 11.754300 -0.000000 0.000003 -0.003148 -0.042270 -18.295900 -2.192510 6.469440 -0.000001 -170.307000 16.224400 135.896000 -39.081100 -0.002282 -0.040193 0.393160 -0.423932 42.605300 -40.985400 0.000008 0.000006 10.502200 5.437670 -61.690900 -11.754300 -0.000006 -0.000006 -0.018577 -0.159278 -23.078000
0.000000 0.000000 0.000000 0.000000 0.000000 -0.000000 10.240300 83.061600 14.395900 -90.084300 -2.005190 173.645000 15.735700 0.000005 -0.000001 73.163400 81.415800 -70.794700 8.984550 -0.406207 -0.000000 8.797510 -4.926650 5.114700 16.377300 -0.000001 -0.000001 -1.776620 -2.402570 0.291626 6.456720 -0.000001 -0.000000 -9.242820 0.996409 -0.222659 12.994200 -0.242716 4.980390 -90.717700 2.492100 -73.928200 5.348090 -0.000007 -0.000001 -58.606500 36.483200 -7.059560 24.328600 0.000019 0.000005 11.996500 15.987200 -37.658600 22.291600 -0.000001 0.000005 -1.531970 5.497060 -6.414820 12.994500 -0.242716 -4.980390 87.355100 11.352200 -76.792100 -5.348130 -0.000001 -0.000004 -57.024000 15.365400 -2.621860 -24.328900 0.000322 -0.000009 -9.315590 -5.947470 -57.719000 -22.291500 -0.000108 -0.000004 5.748220 5.529230 -7.760050 -2.192480 -6.469440 -0.000000 -173.604000 -9.149560 -16.495900 39.081100 -0.000007 -0.000012 0.405874 0.237793 120.363000 40.985400 -0.000006 -0.000013 5.000100 -5.159290 -18.256400 11.754300 -0.000000 0.000003 -0.003338 -0.044380 -18.381800 -2.192510 6.469440 -0.000001 -172.448000 3.311140 138.274000 -39.081100 -0.002282 -0.040193 -0.483664 0.299339 58.416800 -40.985400 0.000008 0.000006 9.756130 -3.613080 -73.571000 -11.754300 -0.000006 -0.000006 -0.004735 -0.058875 -18.968400
0.000000 0.000000 0.000000 0.000000 0.000000 -0.000000 10.216700 80.894000 3.647430 -88.687500 1.789230 174.567000 15.735700 0.000005 -0.000001 81.193600 80.933500 -78.799100 8.984550 -0.406207 -0.000000 10.223100 -2.706670 5.028750 16.377300 -0.000001 -0.000001 -1.807270 -1.225640 0.946043 6.456720 -0.000001 -0.000000 -8.822690 1.515480 -1.205440 12.994200 -0.242716 4.980390 -90.556900 1.790910 -72.721800 5.348090 -0.000007 -0.000001 -62.641900 33.287900 3.524440 24.328600 0.000019 0.000005 13.390500 25.315300 -29.110000 22.291600 -0.000001 0.000005 -3.779390 5.505280 -6.751580 12.994500 -0.242716 -4.980390 88.021000 11.020600 -79.754800 -5.348130 -0.000001 -0.000004 -54.586900 11.390900 -20.872600 -24.328900 0.000322 -0.000009 -6.685400 -2.975500 -66.118100 -22.291500 -0.000108 -0.000004 5.084060 5.509820 -6.930800 -2.192480 -6.469440 -0.000000 -174.956000 -9.903560 -35.126100 39.081100 -0.000007 -0.000012 -0.081048 -0.077596 133.764000 40.985400 -0.000006 -0.000013 6.677060 0.128499 -15.424600 11.754300 -0.000000 0.000003 -0.003199 -0.042839 -18.319000 -2.192510 6.469440 -0.000001 -170.606000 2.886400 145.346000 -39.081100 -0.002282 -0.040193 -0.007906 0.005313 64.372000 -40.985400 0.000008 0.000006 15.203900 -5.512540 -85.361600 -11.754300 -0.000006 -0.000006 -0.004264 -0.054156 -18.776200
